<mxfile host="app.diagrams.net" agent="Mozilla/5.0 (Windows NT 10.0; Win64; x64) AppleWebKit/537.36 (KHTML, like Gecko) Chrome/129.0.0.0 Safari/537.36" version="24.7.16">
  <diagram name="Page-1" id="826kA4ajehke6rP_PfvC">
    <mxGraphModel dx="1221" dy="599" grid="1" gridSize="10" guides="1" tooltips="1" connect="1" arrows="1" fold="1" page="1" pageScale="1" pageWidth="850" pageHeight="1100" math="0" shadow="0">
      <root>
        <mxCell id="0" />
        <mxCell id="1" parent="0" />
        <mxCell id="mLUAJm3U23yeJjfOmp6Z-1" value="" style="sketch=0;outlineConnect=0;fontColor=#232F3E;gradientColor=none;fillColor=#232F3D;strokeColor=none;dashed=0;verticalLabelPosition=bottom;verticalAlign=top;align=center;html=1;fontSize=12;fontStyle=0;aspect=fixed;pointerEvents=1;shape=mxgraph.aws4.users;" vertex="1" parent="1">
          <mxGeometry x="30" y="260" width="78" height="78" as="geometry" />
        </mxCell>
        <mxCell id="mLUAJm3U23yeJjfOmp6Z-2" value="Amazon API Gateway" style="sketch=0;outlineConnect=0;fontColor=#232F3E;gradientColor=none;strokeColor=#ffffff;fillColor=#232F3E;dashed=0;verticalLabelPosition=middle;verticalAlign=bottom;align=center;html=1;whiteSpace=wrap;fontSize=10;fontStyle=1;spacing=3;shape=mxgraph.aws4.productIcon;prIcon=mxgraph.aws4.api_gateway;" vertex="1" parent="1">
          <mxGeometry x="200" y="260" width="80" height="110" as="geometry" />
        </mxCell>
        <mxCell id="mLUAJm3U23yeJjfOmp6Z-3" value="" style="edgeStyle=orthogonalEdgeStyle;html=1;endArrow=block;elbow=vertical;startArrow=none;endFill=1;strokeColor=#545B64;rounded=0;" edge="1" parent="1">
          <mxGeometry width="100" relative="1" as="geometry">
            <mxPoint x="108" y="298.5" as="sourcePoint" />
            <mxPoint x="208" y="298.5" as="targetPoint" />
          </mxGeometry>
        </mxCell>
        <mxCell id="mLUAJm3U23yeJjfOmp6Z-4" value="Amazon Kinesis Data Firehose" style="sketch=0;outlineConnect=0;fontColor=#232F3E;gradientColor=none;strokeColor=#ffffff;fillColor=#232F3E;dashed=0;verticalLabelPosition=middle;verticalAlign=bottom;align=center;html=1;whiteSpace=wrap;fontSize=10;fontStyle=1;spacing=3;shape=mxgraph.aws4.productIcon;prIcon=mxgraph.aws4.kinesis_data_firehose;" vertex="1" parent="1">
          <mxGeometry x="425" y="255" width="80" height="120" as="geometry" />
        </mxCell>
        <mxCell id="mLUAJm3U23yeJjfOmp6Z-5" value="" style="edgeStyle=orthogonalEdgeStyle;html=1;endArrow=block;elbow=vertical;startArrow=none;endFill=1;strokeColor=#545B64;rounded=0;" edge="1" parent="1">
          <mxGeometry width="100" relative="1" as="geometry">
            <mxPoint x="280" y="298.5" as="sourcePoint" />
            <mxPoint x="425" y="298.5" as="targetPoint" />
          </mxGeometry>
        </mxCell>
        <mxCell id="mLUAJm3U23yeJjfOmp6Z-6" value="Amazon S3" style="sketch=0;outlineConnect=0;fontColor=#232F3E;gradientColor=none;strokeColor=#ffffff;fillColor=#232F3E;dashed=0;verticalLabelPosition=middle;verticalAlign=bottom;align=center;html=1;whiteSpace=wrap;fontSize=10;fontStyle=1;spacing=3;shape=mxgraph.aws4.productIcon;prIcon=mxgraph.aws4.s3;" vertex="1" parent="1">
          <mxGeometry x="640" y="255" width="80" height="100" as="geometry" />
        </mxCell>
        <mxCell id="mLUAJm3U23yeJjfOmp6Z-7" value="" style="edgeStyle=orthogonalEdgeStyle;html=1;endArrow=block;elbow=vertical;startArrow=none;endFill=1;strokeColor=#545B64;rounded=0;" edge="1" parent="1">
          <mxGeometry width="100" relative="1" as="geometry">
            <mxPoint x="495" y="290" as="sourcePoint" />
            <mxPoint x="640" y="290" as="targetPoint" />
          </mxGeometry>
        </mxCell>
        <mxCell id="mLUAJm3U23yeJjfOmp6Z-8" value="User/Application will send data to API Gateway" style="whiteSpace=wrap;html=1;" vertex="1" parent="1">
          <mxGeometry x="20" y="180" width="120" height="60" as="geometry" />
        </mxCell>
        <mxCell id="mLUAJm3U23yeJjfOmp6Z-9" value="API Gateway transfer the data to Kinesis firehouse for processing" style="whiteSpace=wrap;html=1;" vertex="1" parent="1">
          <mxGeometry x="180" y="180" width="120" height="60" as="geometry" />
        </mxCell>
        <mxCell id="mLUAJm3U23yeJjfOmp6Z-10" value="Kinesis firehouse will process the data and send to s3 bucket for storage" style="whiteSpace=wrap;html=1;" vertex="1" parent="1">
          <mxGeometry x="405" y="180" width="120" height="60" as="geometry" />
        </mxCell>
        <mxCell id="mLUAJm3U23yeJjfOmp6Z-11" value="data will be stored in s3 bucket with detailed folder scructure" style="whiteSpace=wrap;html=1;" vertex="1" parent="1">
          <mxGeometry x="620" y="180" width="120" height="60" as="geometry" />
        </mxCell>
      </root>
    </mxGraphModel>
  </diagram>
</mxfile>
